
Info.


General

Format                           : MPEG-4
Format profile                   : Base Media
Codec ID                         : isom
File size                        : 1.26 GiB
Duration                         : 1h 8mn
Overall bit rate                 : 2 621 Kbps
Encoded date                     : UTC 2009-11-14 16:00:44
Tagged date                      : UTC 2009-11-14 16:00:44

Video
ID                               : 1
Format                           : AVC
Format/Info                      : Advanced Video Codec
Format profile                   : Main@L3.1
Format settings, CABAC           : Yes
Format settings, ReFrames        : 2 frames
Codec ID                         : avc1
Codec ID/Info                    : Advanced Video Coding
Duration                         : 1h 8mn
Bit rate mode                    : Variable
Bit rate                         : 2 492 Kbps
Maximum bit rate                 : 7 825 Kbps
Width                            : 720 pixels
Height                           : 480 pixels
Display aspect ratio             : 16:9
Frame rate mode                  : Constant
Frame rate                       : 23.976 fps
Standard                         : NTSC
Resolution                       : 24 bits
Colorimetry                      : 4:2:0
Scan type                        : Progressive
Bits/(Pixel*Frame)               : 0.301
Stream size                      : 1.20 GiB (95%)
Writing library                  : x264 core 59 r818 d4b7d2b
Encoding settings                : cabac=1 / ref=2 / deblock=1:0:0 / 

analyse=0x1:0x111 / me=hex / subme=5 / brdo=0 / mixed_ref=0 / me_range=16 / 

chroma_me=1 / trellis=0 / 8x8dct=0 / cqm=0 / deadzone=21,11 / 

chroma_qp_offset=0 / threads=1 / nr=0 / decimate=1 / mbaff=0 / bframes=3 / 

b_pyramid=0 / b_adapt=1 / b_bias=0 / direct=1 / wpredb=0 / bime=0 / keyint=250 

/ keyint_min=25 / scenecut=40 / rc=2pass / bitrate=2492 / ratetol=1.0 / 

rceq='blurCplx^(1-qComp)' / qcomp=1.00 / qpmin=10 / qpmax=51 / qpstep=4 / 

cplxblur=20.0 / qblur=0.5 / ip_ratio=1.40 / pb_ratio=1.30 / aq=2:1.00
Encoded date                     : UTC 2009-11-14 16:00:44
Tagged date                      : UTC 2009-11-14 16:02:15

Audio
ID                               : 2
Format                           : AAC
Format/Info                      : Advanced Audio Codec
Format version                   : Version 4
Format profile                   : LC
Format settings, SBR             : No
Codec ID                         : 40
Duration                         : 1h 8mn
Bit rate mode                    : Variable
Bit rate                         : 125 Kbps
Maximum bit rate                 : 158 Kbps
Channel(s)                       : 2 channels
Channel positions                : L R
Sampling rate                    : 48.0 KHz
Resolution                       : 16 bits
Stream size                      : 61.8 MiB (5%)
Encoded date                     : UTC 2009-11-14 16:02:06
Tagged date                      : UTC 2009-11-14 16:02:15
********************************************************************
IMDB LINK: http://www.imdb.com/title/tt1554966/
********************************************************************
Genre: Comedy, Stand Up
********************************************************************
Download, Comment, Seed and then Enjoy